<svg xmlns="http://www.w3.org/2000/svg" xmlns:xlink="http://www.w3.org/1999/xlink" width="500" height="40" viewBox="0 0 500 40">
  <metadata><?xpacket begin="﻿" id="W5M0MpCehiHzreSzNTczkc9d"?>
<x:xmpmeta xmlns:x="adobe:ns:meta/" x:xmptk="Adobe XMP Core 5.6-c138 79.159824, 2016/09/14-01:09:01        ">
   <rdf:RDF xmlns:rdf="http://www.w3.org/1999/02/22-rdf-syntax-ns#">
      <rdf:Description rdf:about=""/>
   </rdf:RDF>
</x:xmpmeta>
                                                                                                    
                                                                                                    
                                                                                                    
                                                                                                    
                                                                                                    
                                                                                                    
                                                                                                    
                                                                                                    
                                                                                                    
                                                                                                    
                                                                                                    
                                                                                                    
                                                                                                    
                                                                                                    
                                                                                                    
                                                                                                    
                                                                                                    
                                                                                                    
                                                                                                    
                                                                                                    
                           
<?xpacket end="w"?></metadata>
<defs>
    <style>
      .cls-1, .cls-6, .cls-7 {
        fill: #fff;
      }

      .cls-1, .cls-2, .cls-4 {
        fill-rule: evenodd;
      }

      .cls-2 {
        opacity: 0.7;
      }

      .cls-3 {
        filter: url(#filter);
      }

      .cls-4, .cls-5 {
        fill: #3c444b;
      }

      .cls-6 {
        font-size: 13px;
        font-family: Muli;
        font-weight: 700;
      }

      .cls-7 {
        fill-opacity: 0;
      }

      .cls-7, .cls-8 {
        stroke: #fff;
        stroke-linejoin: round;
        stroke-width: 1px;
      }

      .cls-8 {
        fill: #00b0a9;
      }
    </style>
    <filter id="filter" filterUnits="userSpaceOnUse">
      <feFlood result="flood" flood-color="#fff"/>
      <feComposite result="composite" operator="in" in2="SourceGraphic"/>
      <feBlend result="blend" in2="SourceGraphic"/>
    </filter>
  </defs>
  <path class="cls-1" d="M443.846,10.543A3.587,3.587,0,0,0,440.7,7.994a3.5,3.5,0,0,0-3.053,2.337,6.434,6.434,0,0,0-5.92,4.166,6.313,6.313,0,0,0,.858,5.955l-2.574,7a0.694,0.694,0,0,0,.024.536l1.711,3.605a0.721,0.721,0,0,0,.951.34l3.668-1.681a0.7,0.7,0,0,0,.346-0.934l-0.553-1.165,1.185-.543a0.7,0.7,0,0,0,.346-0.934l-0.552-1.165,1.185-.544a0.705,0.705,0,0,0,.372-0.4l0.617-1.705a6.542,6.542,0,0,0,.673-0.2,6.586,6.586,0,0,0,.674.2l0.617,1.705a0.712,0.712,0,0,0,.372.4l1.186,0.544-0.553,1.165a0.7,0.7,0,0,0,.346.934l1.186,0.543-0.553,1.165a0.7,0.7,0,0,0,.346.934l3.668,1.681a0.721,0.721,0,0,0,.951-0.34l1.71-3.605a0.693,0.693,0,0,0,.025-0.536l-2.575-7a6.313,6.313,0,0,0,.859-5.955A6.385,6.385,0,0,0,443.846,10.543ZM440.7,9.4a1.82,1.82,0,0,1,1.436.93,6.544,6.544,0,0,0-2.146.385l-0.005,0,0,0a6.57,6.57,0,0,0-.812-0.233A1.9,1.9,0,0,1,440.7,9.4ZM437.6,15.1a0.719,0.719,0,0,1,.917-0.42,0.7,0.7,0,0,1,.427.9,0.718,0.718,0,0,1-.917.42A0.7,0.7,0,0,1,437.6,15.1Zm1.051,6.458a0.712,0.712,0,0,0-.549.457l-0.651,1.8-1.562.716a0.7,0.7,0,0,0-.347.934l0.553,1.165-1.185.543a0.7,0.7,0,0,0-.346.934l0.553,1.165-2.372,1.087-1.283-2.7,2.609-7.089a0.7,0.7,0,0,0-.125-0.691,4.922,4.922,0,0,1-.869-4.9,4.993,4.993,0,0,1,4.147-3.21,6.884,6.884,0,0,0-.1,1.148c0,0.209.01,0.416,0.028,0.622a2.095,2.095,0,0,0,.382,3.784,2.155,2.155,0,0,0,2.751-1.261,2.1,2.1,0,0,0-1.283-2.7,2.2,2.2,0,0,0-.436-0.107c-0.006-.111-0.011-0.223-0.011-0.335a5.362,5.362,0,0,1,.113-1.1,5.161,5.161,0,0,1,.824.22,4.947,4.947,0,0,1,2.993,6.356A5.006,5.006,0,0,1,438.65,21.557Zm8.252-6.579a4.921,4.921,0,0,1-.87,4.9,0.694,0.694,0,0,0-.124.691l2.608,7.089-1.283,2.7-2.371-1.087,0.553-1.165a0.7,0.7,0,0,0-.346-0.935l-1.186-.543,0.553-1.165a0.7,0.7,0,0,0-.346-0.934l-1.563-.716-0.65-1.8a0.711,0.711,0,0,0-.188-0.28,6.3,6.3,0,0,0,.152-9.985,5.024,5.024,0,0,1,1.3.075l0.043,0.009A4.976,4.976,0,0,1,446.9,14.978Z"/>
  <path id="Forma_1" data-name="Forma 1" class="cls-2" d="M231.58,20l7.071-7.083a1.125,1.125,0,0,0-1.59-1.593L229.989,18.4l-7.071-7.083a1.126,1.126,0,0,0-1.591,1.593L228.4,20l-7.072,7.083a1.126,1.126,0,1,0,1.591,1.593l7.071-7.083,7.072,7.083a1.125,1.125,0,0,0,1.59-1.593Z"/>
  <path id="Forma_1-2" data-name="Forma 1" class="cls-1" d="M145.5,8a9.439,9.439,0,0,0-9.5,9.375,9.25,9.25,0,0,0,1.9,5.62L145.5,32l7.6-9.005a9.25,9.25,0,0,0,1.9-5.62A9.439,9.439,0,0,0,145.5,8Zm0,15.625a6.251,6.251,0,1,1,6.333-6.25A6.292,6.292,0,0,1,145.5,23.625Z"/>
  <path id="Forma_1-3" data-name="Forma 1" class="cls-1" d="M314.507,21.116a6.431,6.431,0,0,0,5.654-6.558c0-.645-0.017-1.269-0.073-1.858a5.37,5.37,0,0,0-.963-2.974C318.328,8.654,316.933,8,314.507,8s-3.821.654-4.618,1.725a5.365,5.365,0,0,0-.963,2.975c-0.056.589-.073,1.212-0.073,1.858A6.431,6.431,0,0,0,314.507,21.116ZM316.352,10.4c-0.164.4-.247,0.594-0.412,0.989a4.9,4.9,0,0,0-2.867,0c-0.164-.4-0.247-0.594-0.412-0.989A6.073,6.073,0,0,1,316.352,10.4Zm-5.7,3.152a1.21,1.21,0,0,0,.77.705c0.492,0.056.355-1.658,3.088-1.663s2.595,1.719,3.088,1.663a1.21,1.21,0,0,0,.77-0.705c0.013,0.332.973,0.668,0.973,1A5.721,5.721,0,0,1,317.407,19a3.817,3.817,0,0,1-5.8,0,5.721,5.721,0,0,1-1.931-4.44C309.676,14.223,310.635,13.887,310.649,13.555ZM325,27.841c-0.288-1.707-.883-3.906-2.075-4.687-0.814-.534-3.653-1.977-4.866-2.593l-0.021-.01a0.412,0.412,0,0,0-.431.036,5.266,5.266,0,0,1-2.068.95,0.393,0.393,0,0,0-.285.234l-0.75,1.882-0.751-1.882a0.39,0.39,0,0,0-.284-0.234,5.266,5.266,0,0,1-2.068-.95,0.414,0.414,0,0,0-.432-0.036c-1.2.609-4.073,2.081-4.883,2.6-1.372.879-1.972,4.06-2.079,4.689a0.367,0.367,0,0,0,.018.186c0.029,0.078.483,1.2,2.753,2.095a1.123,1.123,0,0,1,.5-0.343,1.112,1.112,0,0,1-.59-0.46,1.022,1.022,0,0,1-.02-1.055,3.406,3.406,0,0,1,5.668-.245h4.331a3.2,3.2,0,0,1,.408-0.473,3.385,3.385,0,0,1,2.345-.927h0a3.352,3.352,0,0,1,2.912,1.636,1.024,1.024,0,0,1-.017,1.055,1.112,1.112,0,0,1-.588.461,1.128,1.128,0,0,1,.508.348c2.264-.9,2.717-2.014,2.746-2.092A0.358,0.358,0,0,0,325,27.841Zm-3.644,2.8h0l-2.086,0a2.29,2.29,0,0,1-.109-0.869,2.307,2.307,0,0,1,.106-0.87l2.086,0a0.142,0.142,0,0,0,.121-0.066,0.129,0.129,0,0,0,0-.133,2.409,2.409,0,0,0-3.706-.5,2.207,2.207,0,0,0-.517.747h-5.5a2.39,2.39,0,0,0-4.224-.24,0.129,0.129,0,0,0,0,.133,0.144,0.144,0,0,0,.121.065h0l2.086,0a2.314,2.314,0,0,1,.109.869,2.3,2.3,0,0,1-.106.869l-2.086,0a0.142,0.142,0,0,0-.121.066,0.125,0.125,0,0,0,0,.133A2.361,2.361,0,0,0,309.585,32h0a2.385,2.385,0,0,0,1.653-.654,2.206,2.206,0,0,0,.516-0.747h5.5a2.342,2.342,0,0,0,2.17,1.4h0a2.361,2.361,0,0,0,2.05-1.16,0.127,0.127,0,0,0,0-.133A0.141,0.141,0,0,0,321.359,30.642Z"/>
  <path id="Forma_1-4" data-name="Forma 1" class="cls-1" d="M281.45,14.123A13,13,0,0,0,260,23.941c0,0.192.018,2.927,0.027,3.118V29h25.916V27.2l0.025-.142c0.008-.191.028-2.926,0.028-3.118A12.99,12.99,0,0,0,281.45,14.123ZM261.7,27.3c-0.013-.132,0-3,0-3.135h3.039V23.2h-2.825a1.4,1.4,0,0,0-.214,0,10.9,10.9,0,0,1,2.918-6.928l0.077-.081,0.137,0.116,2.022,1.979,0.635-.623-2.149-2.1a11.248,11.248,0,0,1,7.044-2.851h0.153s0.064,0,.06.037v2.931H273.4V12.719a10.774,10.774,0,0,1,1.191.123,11.217,11.217,0,0,1,6.063,2.767l-2.144,2.1,0.6,0.586,2.059-2.015,0.115-.09,0.1,0.126A10.749,10.749,0,0,1,284.3,23.2H281.26v0.959l3.049,0s0,3.012-.009,3.132Zm16.361-8.976s-5.832,1.036-7.04,1.986a2.819,2.819,0,0,0-.475,3.938,2.759,2.759,0,0,0,3.9.488C275.65,23.78,278.059,18.323,278.059,18.323Z"/>
  <g class="cls-3">
    <path id="Forma_1-5" data-name="Forma 1" class="cls-4" d="M198.691,14.624a3.636,3.636,0,0,0-.746-1.187l-4.351-4.376a3.619,3.619,0,0,0-1.181-.75A3.569,3.569,0,0,0,191.046,8H179.49a1.436,1.436,0,0,0-1.057.438A1.451,1.451,0,0,0,178,9.5v21a1.451,1.451,0,0,0,.435,1.063A1.436,1.436,0,0,0,179.49,32h18.02A1.488,1.488,0,0,0,199,30.5V16A3.628,3.628,0,0,0,198.691,14.624ZM184.125,10.5a0.5,0.5,0,0,1,.5-0.5h3.938a0.506,0.506,0,0,1,.5.5v5a0.506,0.506,0,0,1-.5.5h-3.938a0.478,0.478,0,0,1-.35-0.148,0.483,0.483,0,0,1-.147-0.352v-5Zm8.91,19.5h-9.07V24h9.07v6Zm3.978,0h-1.989V23.5a1.448,1.448,0,0,0-.436-1.063A1.431,1.431,0,0,0,193.532,22H183.468a1.433,1.433,0,0,0-1.057.438,1.45,1.45,0,0,0-.435,1.063V30h-1.989V10h1.989v6.5a1.451,1.451,0,0,0,.435,1.063,1.435,1.435,0,0,0,1.057.438h6.086a1.435,1.435,0,0,0,1.057-.437,1.451,1.451,0,0,0,.435-1.063V10a2.2,2.2,0,0,1,1.134.469l4.367,4.391a1.684,1.684,0,0,1,.311.539,1.746,1.746,0,0,1,.155.6V30Z"/>
    <rect class="cls-5" x="184.688" y="25.281" width="7.625" height="3.844"/>
  </g>
  <text id="P" class="cls-6" transform="translate(142.576 20.568) scale(0.746)">P</text>
  <path id="Forma_1-6" data-name="Forma 1" class="cls-1" d="M8,20a10.723,10.723,0,0,0,3.381,7.762L8,31h8.615V22.75l-3.209,3.073C11.841,24.331,9.838,22.276,9.838,20c0-3.589,3.432-7.634,6.777-8.769V9.357A11.1,11.1,0,0,0,8,20Zm10.564,4.125h2.872v2.75H18.564v-2.75ZM32,9H23.385v8.25l3.209-4.073c1.565,1.492,3.568,4.547,3.568,6.823,0,3.589-3.432,7.634-6.777,8.769v1.867A11.083,11.083,0,0,0,32,20a10.723,10.723,0,0,0-3.381-7.762ZM18.564,13.125h2.872v8.25H18.564v-8.25Z"/>
  <path class="cls-1" d="M347.058,20.373a9.283,9.283,0,0,1,.33-3.784A9.8,9.8,0,0,1,356.7,9.723V7.156a0.19,0.19,0,0,1,.3-0.132l5.435,3.881a0.16,0.16,0,0,1,0,.26l-5.43,3.881a0.189,0.189,0,0,1-.3-0.132V12.351a7.114,7.114,0,0,0-6.435,4.237,6.655,6.655,0,0,0-.551,3.025,6.773,6.773,0,0,0,1.552,3.937,1.291,1.291,0,0,1-.257,1.885,1.39,1.39,0,0,1-1.876-.255A9.277,9.277,0,0,1,347.058,20.373Zm15.691-4.93a6.673,6.673,0,0,1,1,6.962,7.107,7.107,0,0,1-6.436,4.238V24.081a0.19,0.19,0,0,0-.3-0.132l-5.434,3.881a0.16,0.16,0,0,0,0,.26l5.429,3.881a0.189,0.189,0,0,0,.3-0.132V29.271a9.784,9.784,0,0,0,9.308-6.866,9.37,9.37,0,0,0,.33-3.784,9.237,9.237,0,0,0-2.07-4.808A1.391,1.391,0,0,0,363,13.558,1.294,1.294,0,0,0,362.749,15.443Z"/>
  <path id="Forma_1-7" data-name="Forma 1" class="cls-1" d="M110.5,23.771V18.286a6.875,6.875,0,0,0-13.75,0v5.485L94,29.256h6.257a3.439,3.439,0,0,0,6.736,0h6.256Zm-6.875,6.856a2.055,2.055,0,0,1-1.936-1.371h3.873A2.057,2.057,0,0,1,103.625,30.627Zm-7.562-2.742,2.062-4.114V18.286a5.5,5.5,0,0,1,11,0v5.485l2.062,4.114H96.063Z"/>
  <circle class="cls-7" cx="103.625" cy="9.578" r="2.625"/>
  <path class="cls-1" d="M408.475,9.561a5.3,5.3,0,0,0-7.493,0L387.243,23.288a0.686,0.686,0,0,0-.194.394l-1.018,7.536a0.684,0.684,0,0,0,.194.578,0.7,0.7,0,0,0,.486.2,0.557,0.557,0,0,0,.092-0.005l4.542-.614a0.691,0.691,0,0,0-.184-1.37l-3.642.491,0.711-5.256,5.534,5.532a0.7,0.7,0,0,0,.486.2,0.678,0.678,0,0,0,.486-0.2l13.739-13.727A5.287,5.287,0,0,0,408.475,9.561Zm-7.227,1.687,2.306,2.306L391.018,26.085l-2.307-2.306Zm-6.993,18.068L392,27.061,404.537,14.53l2.255,2.255Zm13.5-13.518-5.519-5.517A3.92,3.92,0,0,1,407.754,15.8Z"/>
  <circle class="cls-8" cx="109.5" cy="19.5" r="4.5"/>
  <path class="cls-1" d="M107.42,19.976l-0.008,0h3.513l-1.105,1.088a0.283,0.283,0,0,0,0,.4l0.172,0.169a0.291,0.291,0,0,0,.406,0l1.893-1.86a0.28,0.28,0,0,0,0-.4L110.4,17.511a0.292,0.292,0,0,0-.406,0l-0.172.169a0.277,0.277,0,0,0-.083.2,0.268,0.268,0,0,0,.083.2l1.117,1.094h-3.521a0.3,0.3,0,0,0-.291.289V19.7A0.29,0.29,0,0,0,107.42,19.976Z"/>
  <path id="Forma_1-8" data-name="Forma 1" class="cls-1" d="M71.61,21.521l-1.788-.315V20.382A3.315,3.315,0,0,0,66.6,16.846H57.649a3.483,3.483,0,0,0-3.432,3.536v0.835l-1.82.307a0.487,0.487,0,0,0-.4.473v0.47a0.479,0.479,0,0,0,.478.474h0.5a1.409,1.409,0,0,0-.192.707v4a1.326,1.326,0,0,0,.988,1.3v2.557a0.481,0.481,0,0,0,.467.487h2.146a0.488,0.488,0,0,0,.475-0.488V28.994h10.54v2.517a0.488,0.488,0,0,0,.475.488h2.146a0.48,0.48,0,0,0,.467-0.488V28.9a1.324,1.324,0,0,0,.823-1.247v-4a1.4,1.4,0,0,0-.192-0.707h0.414A0.478,0.478,0,0,0,72,22.466V21.993A0.481,0.481,0,0,0,71.61,21.521Zm-15.663-1.14a1.712,1.712,0,0,1,1.7-1.716h2.628a0.074,0.074,0,0,0-.007.04v0.8a0.263,0.263,0,0,0,.266.264h2.733a0.253,0.253,0,0,0,.254-0.264v-0.8c0-.019.01-0.04,0.007-0.04H66.6a1.534,1.534,0,0,1,1.453,1.716V21.8h-12.1V20.382Zm0.877,6.376a0.961,0.961,0,1,1,.935-0.96A0.948,0.948,0,0,1,56.824,26.758Zm7.895-.05H59.38a0.911,0.911,0,0,1,0-1.82h5.338A0.911,0.911,0,0,1,64.719,26.708ZM66.34,25.8a0.935,0.935,0,1,1,.934.96A0.948,0.948,0,0,1,66.34,25.8ZM67.346,8a3.533,3.533,0,0,0-3.11,1.944H63.4a0.438,0.438,0,0,0-.255.043l-0.976.633a0.354,0.354,0,0,1-.394-0.008l-0.9-.6A0.357,0.357,0,0,0,60.481,10l-0.951.6a0.383,0.383,0,0,1-.41,0l-0.973-.6a0.4,0.4,0,0,0-.423,0l-0.645.409a0.319,0.319,0,0,1-.352-0.007L56.048,9.98a0.375,0.375,0,0,0-.223-0.036H54.859a1.692,1.692,0,0,0-1.735,1.7,1.557,1.557,0,0,0,1.6,1.568h9.511A3.532,3.532,0,1,0,67.346,8ZM68.3,12.767a1.173,1.173,0,1,1,1.14-1.173A1.157,1.157,0,0,1,68.3,12.767Z"/>
</svg>
