<?xml version="1.0" encoding="utf-8"?>
<!-- Generator: Adobe Illustrator 27.5.0, SVG Export Plug-In . SVG Version: 6.00 Build 0)  -->
<svg version="1.1" id="Layer_1" xmlns="http://www.w3.org/2000/svg" xmlns:xlink="http://www.w3.org/1999/xlink" x="0px" y="0px"
	 viewBox="0 0 500 40" style="enable-background:new 0 0 500 40;" xml:space="preserve">
<style type="text/css">
	.st0{fill-rule:evenodd;clip-rule:evenodd;fill:#FFFFFF;}
	.st1{opacity:0.7;fill-rule:evenodd;clip-rule:evenodd;enable-background:new    ;}
	.st2{fill-rule:evenodd;clip-rule:evenodd;fill:#3C444B;}
	.st3{fill:#3C444B;}
	.st4{fill:#FFFFFF;}
	.st5{font-family:'Arial-BoldMT';}
	.st6{font-size:9.698px;}
	.st7{fill:#FFFFFF;fill-opacity:0;stroke:#FFFFFF;stroke-linejoin:round;}
	.st8{fill:#00B0A9;stroke:#FFFFFF;stroke-linejoin:round;}
</style>
<path class="st0" d="M443.8,10.5c-0.4-1.4-1.7-2.4-3.1-2.5c-1.4,0.1-2.6,1-3.1,2.3c-2.6,0-5,1.7-5.9,4.2c-0.7,2-0.4,4.2,0.9,6
	l-2.6,7c-0.1,0.2-0.1,0.4,0,0.5l1.7,3.6c0.2,0.4,0.6,0.5,1,0.3l3.7-1.7c0.4-0.2,0.5-0.6,0.3-0.9c0,0,0,0,0,0l-0.6-1.2l1.2-0.5
	c0.4-0.2,0.5-0.6,0.3-0.9c0,0,0,0,0,0l-0.6-1.2l1.2-0.5c0.2-0.1,0.3-0.2,0.4-0.4l0.6-1.7c0.2-0.1,0.5-0.1,0.7-0.2
	c0.2,0.1,0.4,0.1,0.7,0.2l0.6,1.7c0.1,0.2,0.2,0.3,0.4,0.4l1.2,0.5l-0.6,1.2c-0.2,0.4,0,0.8,0.3,0.9c0,0,0,0,0,0l1.2,0.5l-0.6,1.2
	c-0.2,0.4,0,0.8,0.3,0.9c0,0,0,0,0,0l3.7,1.7c0.4,0.2,0.8,0,1-0.3l1.7-3.6c0.1-0.2,0.1-0.4,0-0.5l-2.6-7c1.3-1.7,1.6-4,0.9-6
	C447.5,12.5,445.9,11.1,443.8,10.5z M440.7,9.4c0.6,0.1,1.1,0.4,1.4,0.9c-0.7,0-1.5,0.1-2.1,0.4h0l0,0c-0.3-0.1-0.5-0.2-0.8-0.2
	C439.5,9.9,440,9.5,440.7,9.4z M437.6,15.1c0.1-0.4,0.5-0.6,0.9-0.4c0.4,0.1,0.6,0.5,0.4,0.9c0,0,0,0,0,0c-0.1,0.4-0.5,0.6-0.9,0.4
	C437.7,15.9,437.5,15.5,437.6,15.1C437.6,15.1,437.6,15.1,437.6,15.1z M438.7,21.6c-0.3,0-0.5,0.2-0.5,0.5l-0.7,1.8l-1.6,0.7
	c-0.4,0.2-0.5,0.6-0.4,0.9c0,0,0,0,0,0l0.6,1.2l-1.2,0.5c-0.4,0.2-0.5,0.6-0.3,0.9c0,0,0,0,0,0l0.6,1.2l-2.4,1.1l-1.3-2.7l2.6-7.1
	c0.1-0.2,0-0.5-0.1-0.7c-1.2-1.4-1.5-3.2-0.9-4.9c0.7-1.8,2.3-3,4.1-3.2c-0.1,0.4-0.1,0.8-0.1,1.1c0,0.2,0,0.4,0,0.6
	c-1,0.6-1.3,1.9-0.7,2.9c0.3,0.4,0.6,0.8,1.1,0.9c1.1,0.4,2.3-0.2,2.8-1.3c0.4-1.1-0.2-2.3-1.3-2.7c0,0,0,0,0,0
	c-0.1-0.1-0.3-0.1-0.4-0.1c0-0.1,0-0.2,0-0.3c0-0.4,0-0.7,0.1-1.1c0.3,0.1,0.6,0.1,0.8,0.2c2.6,0.9,3.9,3.7,3,6.3c0,0,0,0,0,0
	C441.9,20.1,440.4,21.3,438.7,21.6L438.7,21.6z M446.9,15c0.6,1.7,0.3,3.5-0.9,4.9c-0.2,0.2-0.2,0.5-0.1,0.7l2.6,7.1l-1.3,2.7
	l-2.4-1.1l0.6-1.2c0.2-0.4,0-0.8-0.3-0.9c0,0,0,0,0,0l-1.2-0.5l0.6-1.2c0.2-0.4,0-0.8-0.3-0.9c0,0,0,0,0,0l-1.6-0.7l-0.6-1.8
	c0-0.1-0.1-0.2-0.2-0.3c2.8-2.1,3.4-6,1.3-8.8c-0.3-0.4-0.7-0.8-1.1-1.2c0.4,0,0.9,0,1.3,0.1l0,0C444.9,12.2,446.3,13.4,446.9,15
	L446.9,15z"/>
<path id="Forma_1" class="st1" d="M231.6,20l7.1-7.1c0.4-0.4,0.4-1.2,0-1.6c-0.4-0.4-1.2-0.4-1.6,0l-7.1,7.1l-7.1-7.1
	c-0.4-0.4-1.2-0.4-1.6,0c-0.4,0.4-0.4,1.1,0,1.6l7.1,7.1l-7.1,7.1c-0.4,0.4-0.5,1.1,0,1.6c0.4,0.4,1.1,0.5,1.6,0c0,0,0,0,0,0
	l7.1-7.1l7.1,7.1c0.4,0.4,1.2,0.4,1.6,0c0.4-0.4,0.4-1.2,0-1.6L231.6,20z"/>
<path id="Forma_1-2" class="st0" d="M145.5,8c-5.2,0-9.5,4.2-9.5,9.4c0,2,0.7,4,1.9,5.6l7.6,9l7.6-9c1.2-1.6,1.9-3.6,1.9-5.6
	C155,12.2,150.7,8,145.5,8z M145.5,23.6c-3.5,0-6.2-2.9-6.2-6.3s2.9-6.2,6.3-6.2c3.4,0,6.2,2.8,6.2,6.3
	C151.8,20.8,149,23.6,145.5,23.6z"/>
<path id="Forma_1-3" class="st0" d="M314.5,21.1c3.3-0.4,5.7-3.2,5.7-6.6c0-0.6,0-1.3-0.1-1.9c0-1.1-0.4-2.1-1-3
	c-0.8-1.1-2.2-1.7-4.6-1.7s-3.8,0.7-4.6,1.7c-0.6,0.9-0.9,1.9-1,3c-0.1,0.6-0.1,1.2-0.1,1.9C308.8,17.9,311.2,20.7,314.5,21.1z
	 M316.4,10.4c-0.2,0.4-0.2,0.6-0.4,1c-0.9-0.3-1.9-0.3-2.9,0c-0.2-0.4-0.2-0.6-0.4-1C313.9,10,315.2,10,316.4,10.4z M310.7,13.6
	c0.1,0.3,0.4,0.6,0.8,0.7c0.5,0.1,0.4-1.7,3.1-1.7s2.6,1.7,3.1,1.7c0.4-0.1,0.6-0.4,0.8-0.7c0,0.3,1,0.7,1,1c0,1.7-0.7,3.3-1.9,4.4
	c-1.4,1.6-3.8,1.8-5.4,0.4c-0.1-0.1-0.3-0.3-0.4-0.4c-1.3-1.1-2-2.7-1.9-4.4C309.7,14.2,310.6,13.9,310.7,13.6L310.7,13.6z
	 M325,27.8c-0.3-1.7-0.9-3.9-2.1-4.7c-0.8-0.5-3.7-2-4.9-2.6l0,0c-0.1-0.1-0.3-0.1-0.4,0c-0.6,0.5-1.3,0.8-2.1,1
	c-0.1,0-0.2,0.1-0.3,0.2l-0.8,1.9l-0.8-1.9c0-0.1-0.2-0.2-0.3-0.2c-0.8-0.2-1.5-0.5-2.1-1c-0.1-0.1-0.3-0.1-0.4,0
	c-1.2,0.6-4.1,2.1-4.9,2.6c-1.4,0.9-2,4.1-2.1,4.7c0,0.1,0,0.1,0,0.2c0,0.1,0.5,1.2,2.8,2.1c0.1-0.2,0.3-0.3,0.5-0.3
	c-0.2-0.1-0.5-0.2-0.6-0.5c-0.2-0.3-0.2-0.7,0-1.1c1-1.6,3.1-2.1,4.7-1.2c0.4,0.2,0.7,0.5,1,0.9h4.3c0.1-0.2,0.3-0.3,0.4-0.5
	c0.6-0.6,1.5-0.9,2.3-0.9l0,0c1.2,0,2.3,0.6,2.9,1.6c0.2,0.3,0.2,0.7,0,1.1c-0.1,0.2-0.3,0.4-0.6,0.5c0.2,0.1,0.4,0.2,0.5,0.3
	c2.3-0.9,2.7-2,2.7-2.1C325,28,325,27.9,325,27.8z M321.4,30.6L321.4,30.6h-2.1c-0.1-0.3-0.1-0.6-0.1-0.9c0-0.3,0-0.6,0.1-0.9h2.1
	c0,0,0.1,0,0.1-0.1c0,0,0-0.1,0-0.1c-0.7-1.1-2.2-1.5-3.3-0.8c-0.1,0.1-0.3,0.2-0.4,0.3c-0.2,0.2-0.4,0.5-0.5,0.7h-5.5
	c-0.5-1.2-2-1.7-3.2-1.2c-0.4,0.2-0.8,0.5-1.1,0.9c0,0,0,0.1,0,0.1c0,0,0.1,0.1,0.1,0.1l0,0h2.1c0.1,0.3,0.1,0.6,0.1,0.9
	c0,0.3,0,0.6-0.1,0.9h-2.1c0,0-0.1,0-0.1,0.1c0,0,0,0.1,0,0.1c0.4,0.7,1.2,1.2,2.1,1.2l0,0c0.6,0,1.2-0.2,1.7-0.7
	c0.2-0.2,0.4-0.5,0.5-0.7h5.5c0.4,0.9,1.2,1.4,2.2,1.4l0,0c0.8,0,1.6-0.4,2-1.2c0,0,0-0.1,0-0.1C321.4,30.7,321.4,30.6,321.4,30.6
	L321.4,30.6z"/>
<path id="Forma_1-4" class="st0" d="M281.5,14.1c-5.5-4.7-13.7-4-18.3,1.4c-2,2.3-3.1,5.3-3.1,8.4c0,0.2,0,2.9,0,3.1V29h25.9v-1.8
	l0-0.1c0-0.2,0-2.9,0-3.1C286,20.2,284.3,16.6,281.5,14.1z M261.7,27.3c0-0.1,0-3,0-3.1h3v-1h-2.8c-0.1,0-0.1,0-0.2,0
	c0.1-2.6,1.2-5,2.9-6.9l0.1-0.1l0.1,0.1l2,2l0.6-0.6l-2.1-2.1c1.9-1.7,4.4-2.7,7-2.9h0.2c0,0,0.1,0,0.1,0v2.9h0.8v-3
	c0.4,0,0.8,0.1,1.2,0.1c2.3,0.3,4.4,1.3,6.1,2.8l-2.1,2.1l0.6,0.6l2.1-2l0.1-0.1l0.1,0.1c1.8,1.9,2.8,4.3,2.9,6.9h-3v1h3
	c0,0,0,3,0,3.1L261.7,27.3z M278.1,18.3c0,0-5.8,1-7,2c-1.2,1-1.4,2.7-0.5,3.9c0.9,1.2,2.7,1.4,3.9,0.5c0,0,0,0,0,0
	C275.6,23.8,278.1,18.3,278.1,18.3L278.1,18.3z"/>
<g>
	<path id="Forma_1-5" class="st2" d="M198.7,14.6c-0.2-0.4-0.4-0.8-0.7-1.2l-4.4-4.4c-0.3-0.3-0.7-0.6-1.2-0.8
		C192,8.1,191.5,8,191,8h-11.6c-0.4,0-0.8,0.2-1.1,0.4c-0.3,0.3-0.4,0.7-0.4,1.1v21c0,0.4,0.1,0.8,0.4,1.1c0.3,0.3,0.7,0.4,1.1,0.4
		h18c0.8,0,1.5-0.7,1.5-1.5c0,0,0,0,0,0V16C199,15.5,198.9,15.1,198.7,14.6z M184.1,10.5c0-0.3,0.2-0.5,0.5-0.5h3.9
		c0.3,0,0.5,0.2,0.5,0.5v5c0,0.3-0.2,0.5-0.5,0.5h-3.9c-0.1,0-0.3-0.1-0.4-0.1c-0.1-0.1-0.1-0.2-0.1-0.4L184.1,10.5L184.1,10.5z
		 M193,30H184v-6h9.1V30z M197,30h-2v-6.5c0-0.4-0.2-0.8-0.4-1.1c-0.3-0.3-0.7-0.4-1.1-0.4h-10.1c-0.4,0-0.8,0.2-1.1,0.4
		c-0.3,0.3-0.4,0.7-0.4,1.1V30h-2V10h2v6.5c0,0.4,0.1,0.8,0.4,1.1c0.3,0.3,0.7,0.4,1.1,0.4h6.1c0.4,0,0.8-0.2,1.1-0.4
		c0.3-0.3,0.4-0.7,0.4-1.1V10c0.4,0,0.8,0.2,1.1,0.5l4.4,4.4c0.1,0.2,0.2,0.3,0.3,0.5c0.1,0.2,0.1,0.4,0.2,0.6L197,30L197,30z"/>
	<rect x="184.7" y="25.3" class="st3" width="7.6" height="3.8"/>
</g>
<text id="P" transform="matrix(1 0 0 1 142.5762 20.5679)" class="st4 st5 st6">P</text>
<path id="Forma_1-6" class="st0" d="M8,20c0,2.9,1.2,5.7,3.4,7.8L8,31h8.6v-8.2l-3.2,3.1c-1.6-1.5-3.6-3.5-3.6-5.8
	c0-3.6,3.4-7.6,6.8-8.8V9.4C11.6,10.5,8.1,14.9,8,20z M18.6,24.1h2.9v2.8h-2.9V24.1z M32,9h-8.6v8.2l3.2-4.1
	c1.6,1.5,3.6,4.5,3.6,6.8c0,3.6-3.4,7.6-6.8,8.8v1.9c5-1.1,8.5-5.5,8.6-10.6c0-2.9-1.2-5.7-3.4-7.8L32,9z M18.6,13.1h2.9v8.2h-2.9
	V13.1z"/>
<path class="st0" d="M347.1,20.4c-0.2-1.3,0-2.6,0.3-3.8c1.3-4.1,5-6.8,9.3-6.9V7.2c0-0.1,0.1-0.2,0.2-0.2c0,0,0.1,0,0.1,0l5.4,3.9
	c0.1,0.1,0.1,0.2,0,0.2c0,0,0,0,0,0L357,15c-0.1,0.1-0.2,0-0.3,0c0,0,0-0.1,0-0.1v-2.6c-2.8,0-5.3,1.7-6.4,4.2c-0.4,1-0.6,2-0.6,3
	c0.1,1.4,0.6,2.8,1.6,3.9c0.5,0.5,0.4,1.4-0.2,1.8c0,0-0.1,0-0.1,0.1c-0.6,0.4-1.4,0.3-1.9-0.3C348,23.8,347.3,22.1,347.1,20.4z
	 M362.7,15.4c1.6,1.9,2,4.6,1,7c-1.1,2.6-3.6,4.2-6.4,4.2v-2.6c0-0.1-0.1-0.2-0.2-0.2c0,0-0.1,0-0.1,0l-5.4,3.9
	c-0.1,0.1-0.1,0.2,0,0.2c0,0,0,0,0,0L357,32c0.1,0.1,0.2,0,0.3,0c0,0,0-0.1,0-0.1v-2.6c4.3,0,8-2.8,9.3-6.9c0.4-1.2,0.5-2.5,0.3-3.8
	c-0.2-1.8-0.9-3.4-2.1-4.8c-0.5-0.6-1.3-0.7-1.9-0.3C362.4,14,362.3,14.8,362.7,15.4C362.7,15.4,362.7,15.4,362.7,15.4L362.7,15.4z"
	/>
<path id="Forma_1-7" class="st0" d="M110.5,23.8v-5.5c0-3.8-3.1-6.9-6.9-6.9s-6.9,3.1-6.9,6.9v5.5L94,29.3h6.3
	c0.4,1.9,2.2,3.1,4.1,2.7c1.3-0.3,2.4-1.3,2.7-2.7h6.3L110.5,23.8z M103.6,30.6c-0.9,0-1.6-0.6-1.9-1.4h3.9
	C105.3,30.1,104.5,30.6,103.6,30.6z M96.1,27.9l2.1-4.1v-5.5c0-3,2.5-5.5,5.5-5.5s5.5,2.5,5.5,5.5v5.5l2.1,4.1
	C111.2,27.9,96.1,27.9,96.1,27.9z"/>
<circle class="st7" cx="103.6" cy="9.6" r="2.6"/>
<path class="st0" d="M408.5,9.6c-2.1-2.1-5.4-2.1-7.5,0l-13.7,13.7c-0.1,0.1-0.2,0.2-0.2,0.4l-1,7.5c0,0.2,0,0.4,0.2,0.6
	c0.1,0.1,0.3,0.2,0.5,0.2c0,0,0.1,0,0.1,0l4.5-0.6c0.4-0.1,0.6-0.4,0.6-0.8c-0.1-0.4-0.4-0.6-0.8-0.6l0,0l-3.6,0.5l0.7-5.3l5.5,5.5
	c0.1,0.1,0.3,0.2,0.5,0.2c0.2,0,0.4-0.1,0.5-0.2L408.5,17C410.5,15,410.5,11.6,408.5,9.6C408.5,9.6,408.5,9.6,408.5,9.6z
	 M401.2,11.2l2.3,2.3L391,26.1l-2.3-2.3L401.2,11.2z M394.3,29.3l-2.3-2.3l12.5-12.5l2.3,2.3L394.3,29.3z M407.8,15.8l-5.5-5.5
	c1.7-1.4,4.1-1.1,5.5,0.5C408.9,12.3,408.9,14.4,407.8,15.8L407.8,15.8z"/>
<circle class="st8" cx="109.5" cy="19.5" r="4.5"/>
<path class="st0" d="M107.4,20L107.4,20h3.5l-1.1,1.1c-0.1,0.1-0.1,0.3,0,0.4l0.2,0.2c0.1,0.1,0.3,0.1,0.4,0l1.9-1.9
	c0.1-0.1,0.1-0.3,0-0.4c0,0,0,0,0,0l-1.9-1.9c-0.1-0.1-0.3-0.1-0.4,0l-0.2,0.2c-0.1,0.1-0.1,0.1-0.1,0.2c0,0.1,0,0.1,0.1,0.2
	l1.1,1.1h-3.5c-0.2,0-0.3,0.1-0.3,0.3v0.2C107.1,19.9,107.3,20,107.4,20z"/>
<path id="Forma_1-8" class="st0" d="M71.6,21.5l-1.8-0.3v-0.8c0.1-1.8-1.3-3.4-3.1-3.5c0,0-0.1,0-0.1,0h-9c-1.9,0-3.5,1.6-3.4,3.5
	c0,0,0,0,0,0v0.8l-1.8,0.3c-0.2,0-0.4,0.2-0.4,0.5v0.5c0,0.3,0.2,0.5,0.5,0.5H53c-0.1,0.2-0.2,0.5-0.2,0.7v4c0,0.6,0.4,1.1,1,1.3
	v2.6c0,0.3,0.2,0.5,0.5,0.5h2.1c0.3,0,0.5-0.2,0.5-0.5V29h10.5v2.5c0,0.3,0.2,0.5,0.5,0.5H70c0.3,0,0.5-0.2,0.5-0.5v-2.6
	c0.5-0.2,0.8-0.7,0.8-1.2v-4c0-0.2-0.1-0.5-0.2-0.7h0.4c0.3,0,0.5-0.2,0.5-0.5V22C72,21.8,71.8,21.6,71.6,21.5z M55.9,20.4
	c0-0.9,0.8-1.7,1.7-1.7h2.6c0,0,0,0,0,0v0.8c0,0.1,0.1,0.3,0.3,0.3c0,0,0,0,0,0h2.7c0.1,0,0.3-0.1,0.3-0.3c0,0,0,0,0,0v-0.8
	c0,0,0,0,0,0h3.1c0.8,0,1.5,0.8,1.5,1.6c0,0,0,0.1,0,0.1v1.4H56L55.9,20.4L55.9,20.4z M56.8,26.8c-0.5,0-1-0.4-1-0.9
	c0-0.5,0.4-1,0.9-1s1,0.4,1,0.9c0,0,0,0,0,0C57.8,26.3,57.3,26.8,56.8,26.8C56.8,26.8,56.8,26.8,56.8,26.8L56.8,26.8z M64.7,26.7
	h-5.3c-0.5,0-0.9-0.5-0.9-1c0-0.5,0.4-0.8,0.9-0.9h5.3c0.5,0,0.9,0.4,0.9,0.9C65.6,26.3,65.2,26.7,64.7,26.7L64.7,26.7z M66.3,25.8
	c0-0.5,0.4-0.9,1-0.9c0.5,0,0.9,0.4,0.9,1c0,0.5-0.4,0.9-0.9,0.9C66.8,26.8,66.3,26.3,66.3,25.8z M67.3,8c-1.3,0-2.5,0.8-3.1,1.9
	h-0.8c-0.1,0-0.2,0-0.3,0l-1,0.6c-0.1,0.1-0.3,0.1-0.4,0L60.9,10c-0.1-0.1-0.3-0.1-0.4,0l-1,0.6c-0.1,0.1-0.3,0.1-0.4,0l-1-0.6
	c-0.1-0.1-0.3-0.1-0.4,0l-0.6,0.4c-0.1,0.1-0.2,0.1-0.4,0L56,10c-0.1,0-0.1,0-0.2,0h-1c-0.9,0-1.7,0.7-1.7,1.6c0,0,0,0,0,0.1
	c0,0.9,0.7,1.6,1.5,1.6c0,0,0,0,0.1,0h9.5c0.9,1.7,3.1,2.4,4.8,1.4c1.7-0.9,2.4-3.1,1.4-4.8C69.8,8.7,68.6,8,67.3,8z M68.3,12.8
	c-0.6,0-1.2-0.5-1.2-1.1s0.5-1.2,1.1-1.2s1.2,0.5,1.2,1.1c0,0,0,0,0,0C69.4,12.2,68.9,12.8,68.3,12.8z"/>
<path class="st4" d="M476.1,31.8c-2,0-4,0-6,0c-0.4,0-0.9,0-1.3-0.2c-1.1-0.4-1.8-1.1-2-2.2c-0.1-0.4-0.1-0.7-0.1-1.1
	c0-1.2,0-2.5,0-3.7c0-1.1,0-2.1,0-3.2c0-0.4,0-0.7,0-1.1c0.1-0.9,0.6-1.6,1.4-2.1c0.5-0.3,1.1-0.5,1.7-0.5c4.2,0,8.3,0,12.5,0
	c1.2,0,2.1,0.5,2.7,1.5c0.3,0.5,0.4,1,0.4,1.5c0,2.6,0,5.2,0,7.8c0,1.1-0.4,2-1.3,2.6c-0.6,0.5-1.3,0.6-2.1,0.6
	C480.1,31.8,478.1,31.8,476.1,31.8C476.1,31.8,476.1,31.8,476.1,31.8z M476.1,30.8C476.1,30.8,476.1,30.8,476.1,30.8
	c2.1,0,4.2,0,6.4,0c1,0,1.9-0.8,2-1.8c0-0.4,0-0.8,0-1.2c0-2.3,0-4.5,0-6.8c0-1-0.6-1.8-1.5-2c-0.3-0.1-0.6-0.1-0.9-0.1
	c-3.9,0-7.8,0-11.7,0c-0.3,0-0.5,0-0.8,0c-1,0.1-1.8,0.9-1.8,2c0,2.6,0,5.3,0,7.9c0,0.1,0,0.2,0,0.4c0.1,0.8,0.8,1.5,1.6,1.6
	c0.3,0,0.6,0,0.8,0C472.2,30.8,474.2,30.8,476.1,30.8z"/>
<path class="st4" d="M493.3,24.7c0,1.8,0,3.5,0,5.3c0,0.5-0.1,0.9-0.4,1.3c-0.4,0.5-1,0.6-1.6,0.4c-0.3-0.1-0.6-0.2-0.9-0.4
	c-1.3-0.9-2.7-1.8-4-2.6c-0.3-0.2-0.4-0.4-0.4-0.7c0-2,0-4,0-6c0-0.1,0-0.3,0-0.4c0-0.3,0.1-0.4,0.3-0.6c0.4-0.3,0.9-0.6,1.3-0.9
	c0.9-0.6,1.9-1.3,2.8-1.9c0.4-0.3,0.9-0.5,1.5-0.4c0.6,0.1,1,0.4,1.2,1c0.1,0.3,0.1,0.6,0.1,0.9C493.3,21.3,493.3,23,493.3,24.7
	C493.3,24.7,493.3,24.7,493.3,24.7z M492.2,24.8C492.2,24.8,492.2,24.8,492.2,24.8c0-1.8,0-3.5,0-5.3c0-0.2,0-0.3-0.1-0.5
	c0-0.1-0.1-0.2-0.2-0.2c-0.3,0-0.6,0.1-0.8,0.3c-0.8,0.5-1.5,1-2.3,1.5c-0.5,0.4-1.1,0.7-1.6,1.1c-0.1,0.1-0.1,0.1-0.1,0.3
	c0,2,0,3.9,0,5.9c0,0.1,0,0.2,0.1,0.2c0.8,0.5,1.6,1,2.3,1.5c0.5,0.3,1,0.7,1.5,1c0.2,0.2,0.5,0.3,0.8,0.3c0.1,0,0.3-0.1,0.3-0.2
	c0-0.2,0.1-0.4,0.1-0.6C492.2,28.2,492.2,26.5,492.2,24.8z"/>
<path class="st4" d="M476.6,13.1c0-2.1,1.7-4.1,4.2-4c2.4,0.1,3.9,2.1,3.9,4.1c0,2.3-1.9,4.1-4.1,4
	C478.3,17.1,476.7,15.3,476.6,13.1z M480.6,10.2c-1.6,0-3,1.3-2.9,3.1c0,1.8,1.6,3,3.2,2.9c1.3-0.1,2.9-1.2,2.8-3
	C483.6,11.3,482.2,10.1,480.6,10.2z"/>
<path class="st4" d="M471.6,17.2c-2.2,0-4-1.8-4-4.1c0-2.2,1.7-4,4.1-4c2.3,0,4,2,4,4.1C475.6,15.4,473.8,17.2,471.6,17.2z
	 M471.7,10.2c-1.8-0.1-3,1.3-3.1,2.8c-0.1,1.8,1.4,3.1,2.9,3.1c1.5,0.1,3.1-1.1,3.1-3C474.6,11.7,473.4,10.2,471.7,10.2z"/>
<path class="st4" d="M473.4,24.8c0-1,0-1.9,0-2.9c0-0.6,0.3-0.9,0.7-1.1c0.3-0.1,0.7,0,1,0.2c0.4,0.2,0.8,0.5,1.2,0.7
	c1.2,0.7,2.4,1.5,3.6,2.2c0.1,0.1,0.3,0.2,0.4,0.3c0.5,0.6,0.2,1.3-0.2,1.5c-0.8,0.4-1.6,0.9-2.3,1.3c-0.5,0.3-1,0.6-1.5,0.9
	c-0.4,0.2-0.8,0.4-1.2,0.6c-0.2,0.1-0.5,0.2-0.8,0.2c-0.5-0.1-0.8-0.4-0.9-0.9c0-0.2,0-0.3,0-0.5C473.3,26.5,473.3,25.7,473.4,24.8
	C473.4,24.8,473.4,24.8,473.4,24.8z M474.4,27.8c1.7-1,3.4-1.9,5.1-2.9c-1.7-1-3.4-2-5.1-3.1C474.5,23.9,474.4,25.8,474.4,27.8z"/>
</svg>
